<svg width="40" height="42" viewBox="0 0 40 42" fill="none" xmlns="http://www.w3.org/2000/svg">
<path d="M20.1187 41.2788C17.2097 41.2788 14.5086 40.7939 12.0153 39.8243C9.5912 38.8547 7.44414 37.4695 5.71265 35.738C3.98116 33.9372 2.59597 31.7902 1.62633 29.2276C0.656697 26.665 0.171875 23.8253 0.171875 20.6394C0.171875 17.4534 0.656701 14.6138 1.6956 12.0512C2.73449 9.48857 4.11967 7.34153 5.92042 5.54077C7.72117 3.74002 9.86823 2.35483 12.2231 1.45445C14.5779 0.484818 17.2098 0 19.9801 0C22.9583 0 25.7287 0.484818 28.1528 1.45445C30.5769 2.42409 32.7239 3.80928 34.3862 5.54077C36.1176 7.34153 37.4336 9.48857 38.4032 12.0512C39.3729 14.6138 39.8577 17.4534 39.8577 20.6394C39.8577 23.8253 39.3729 26.665 38.334 29.2276C37.2951 31.7902 35.9099 33.9372 34.1091 35.738C32.3084 37.5387 30.1613 38.9239 27.7372 39.8243C25.4516 40.7939 22.8198 41.2788 20.1187 41.2788ZM19.9801 36.7769C24.3435 36.7769 27.945 35.3917 30.7154 32.552C33.4858 29.7817 34.871 25.7646 34.871 20.6394C34.871 15.5142 33.4858 11.4971 30.7154 8.72672C27.945 5.95633 24.3435 4.50188 19.9801 4.50188C15.6168 4.50188 12.0153 5.88707 9.31416 8.72672C6.61303 11.4971 5.22782 15.5142 5.22782 20.6394C5.22782 25.7646 6.61303 29.7817 9.31416 32.552C12.0845 35.3917 15.6168 36.7769 19.9801 36.7769ZM12.4308 10.389H19.7724C21.5731 10.389 22.9583 10.5967 24.0665 10.943C25.1746 11.2893 26.0057 11.7741 26.6291 12.259C27.2524 12.813 27.668 13.4364 27.8757 14.1982C28.0835 14.9601 28.222 15.6527 28.222 16.4145C28.222 17.7997 28.0143 18.9771 27.5294 19.8083C27.0446 20.6394 26.2135 21.332 24.9668 21.8861L29.1917 30.128H24.205L20.6035 22.8557H17.002V30.128H12.5001V10.389H12.4308ZM20.3957 19.0464C22.0579 19.0464 23.0276 18.7694 23.3739 18.2846C23.7202 17.7997 23.8587 17.1764 23.8587 16.4838C23.8587 15.9297 23.6509 15.3756 23.1661 14.8908C22.7505 14.406 21.5731 14.1982 19.8416 14.1982H17.002V19.0464H20.3957Z" fill="#3D3D3D"/>
</svg>
