<svg width="92" height="105" viewBox="0 0 92 105" fill="none" xmlns="http://www.w3.org/2000/svg">
<path d="M31.8805 90.6228C27.8303 88.699 24.4889 85.8638 21.755 82.3199C19.0212 78.776 16.9961 74.4221 15.6798 69.3593C14.3635 64.2966 13.6547 58.6264 13.6547 52.3486C13.6547 46.1721 14.3635 40.6031 15.6798 35.5403C16.9961 30.4776 19.1224 26.1237 21.8563 22.4785C24.5902 18.8333 28.0328 16.0995 32.083 14.0744C35.9307 12.2518 40.4871 11.2393 45.5498 11.138V0C39.0695 0.101255 33.1968 1.21505 27.7291 3.44265C22.0588 5.77151 17.2999 9.21416 13.2497 13.6694C9.19951 18.1246 6.06059 23.5923 3.73174 30.1738C1.40289 36.6541 0.289062 44.147 0.289062 52.5511C0.289062 60.9552 1.40291 68.3468 3.63051 74.9283C5.85811 81.4086 8.99699 86.8764 13.0472 91.3316C17.0973 95.7868 21.9576 99.1282 27.5265 101.356C32.9943 103.583 38.9683 104.697 45.4486 104.798V93.6604C40.2846 93.4579 35.7281 92.5466 31.8805 90.6228Z" fill="#181818"/>
<path d="M79.2641 13.4668C75.2139 9.01165 70.4549 5.67025 64.7847 3.44265C59.3169 1.21505 53.3429 0.101255 46.7614 0V11.138C51.8241 11.2392 56.2793 12.1505 60.127 14.0744C64.1772 15.9982 67.5186 18.8333 70.2524 22.4785C72.9863 26.1237 75.1126 30.4776 76.4289 35.5403C77.8465 40.6031 78.5553 46.2733 78.5553 52.3486C78.5553 58.6264 77.8465 64.2966 76.4289 69.3593C75.0114 74.4221 72.9863 78.776 70.2524 82.3199C67.5186 85.8638 64.1772 88.6989 60.127 90.6228C56.1781 92.5466 51.7229 93.4579 46.6602 93.5592V104.697C53.343 104.596 59.4182 103.482 64.886 101.255C70.5562 98.9256 75.3152 95.483 79.3653 91.0278C83.4155 86.5726 86.4532 81.0036 88.6808 74.5233C90.9084 67.9418 91.9209 60.4489 91.9209 52.1461C91.9209 43.8432 90.8071 36.3504 88.5795 29.8701C86.4531 23.3898 83.3142 17.922 79.2641 13.4668Z" fill="#181818"/>
</svg>
