<svg width="59" height="61" viewBox="0 0 59 61" fill="none" xmlns="http://www.w3.org/2000/svg">
<path d="M30.1428 60.3477C25.8901 60.3477 21.9411 59.6389 18.2959 58.2213C14.752 56.8038 11.6132 54.7787 9.08181 52.2473C6.55044 49.6147 4.52533 46.4758 3.10777 42.7294C1.6902 38.983 0.981445 34.8315 0.981445 30.1738C0.981445 25.5161 1.6903 21.3647 3.20912 17.6183C4.72794 13.8719 6.753 10.733 9.38562 8.10036C12.0182 5.46774 15.1571 3.44265 18.5998 2.12634C22.0424 0.708781 25.89 0 29.9402 0C34.2942 0 38.3444 0.708781 41.8883 2.12634C45.4322 3.54391 48.5711 5.569 51.0012 8.10036C53.5326 10.733 55.4564 13.8719 56.874 17.6183C58.2916 21.3647 59.0003 25.5161 59.0003 30.1738C59.0003 34.8315 58.2915 38.983 56.7727 42.7294C55.2538 46.4758 53.2288 49.6147 50.5962 52.2473C47.9635 54.8799 44.8247 56.905 41.2808 58.2213C37.8381 59.6389 34.0917 60.3477 30.1428 60.3477ZM29.9402 53.7661C36.3192 53.7661 41.5845 51.7411 45.6347 47.5896C49.6848 43.5394 51.7099 37.6667 51.7099 30.1738C51.7099 22.681 49.6848 16.8082 45.6347 12.7581C41.5845 8.70789 36.3192 6.58154 29.9402 6.58154C23.5612 6.58154 18.296 8.60663 14.3471 12.7581C10.3982 16.8082 8.37307 22.681 8.37307 30.1738C8.37307 37.6667 10.3982 43.5394 14.3471 47.5896C18.296 51.7411 23.5612 53.7661 29.9402 53.7661ZM18.9036 15.1882H29.6365C32.2691 15.1882 34.2942 15.4919 35.9143 15.9982C37.5343 16.5045 38.7495 17.2133 39.6607 17.922C40.572 18.7321 41.1795 19.6434 41.4832 20.7572C41.787 21.871 41.9895 22.8835 41.9895 23.9973C41.9895 26.0224 41.6858 27.7437 40.977 28.9588C40.2682 30.1738 39.0532 31.1864 37.2306 31.9964L43.4071 44.0457H36.1168L30.7503 33.414H25.4851V44.0457H18.9036V15.1882ZM30.5478 27.845C32.9779 27.845 34.3954 27.44 34.9017 26.7312C35.408 26.0224 35.6106 25.1111 35.6106 24.0986C35.6106 23.2885 35.3068 22.4785 34.598 21.7697C33.9905 21.0609 32.2691 20.7572 29.7378 20.7572H25.5863V27.845H30.5478Z" fill="#181818"/>
</svg>
