<svg width="334" height="71" viewBox="0 0 334 71" fill="none" xmlns="http://www.w3.org/2000/svg">
<path d="M46.7031 31.7905H97.6783V39.8939H46.7031V31.7905Z" fill="#3D3D3D"/>
<path d="M163.414 31.7905H214.389V39.8939H163.414V31.7905V31.7905Z" fill="#3D3D3D"/>
<path d="M314.119 41.2788C311.21 41.2788 308.509 40.7939 306.015 39.8243C303.591 38.8547 301.444 37.4695 299.713 35.738C297.981 33.9372 296.596 31.7902 295.626 29.2276C294.657 26.665 294.172 23.8253 294.172 20.6394C294.172 17.4534 294.657 14.6138 295.696 12.0512C296.734 9.48857 298.12 7.34153 299.92 5.54077C301.721 3.74002 303.868 2.35483 306.223 1.45445C308.578 0.484818 311.21 0 313.98 0C316.958 0 319.729 0.484818 322.153 1.45445C324.577 2.42409 326.724 3.80928 328.386 5.54077C330.118 7.34153 331.434 9.48857 332.403 12.0512C333.373 14.6138 333.858 17.4534 333.858 20.6394C333.858 23.8253 333.373 26.665 332.334 29.2276C331.295 31.7902 329.91 33.9372 328.109 35.738C326.308 37.5387 324.161 38.9239 321.737 39.8243C319.452 40.7939 316.82 41.2788 314.119 41.2788ZM313.98 36.7769C318.344 36.7769 321.945 35.3917 324.715 32.552C327.486 29.7817 328.871 25.7646 328.871 20.6394C328.871 15.5142 327.486 11.4971 324.715 8.72672C321.945 5.95633 318.344 4.50188 313.98 4.50188C309.617 4.50188 306.015 5.88707 303.314 8.72672C300.613 11.4971 299.228 15.5142 299.228 20.6394C299.228 25.7646 300.613 29.7817 303.314 32.552C306.085 35.3917 309.617 36.7769 313.98 36.7769ZM306.431 10.389H313.772C315.573 10.389 316.958 10.5967 318.066 10.943C319.175 11.2893 320.006 11.7741 320.629 12.259C321.252 12.813 321.668 13.4364 321.876 14.1982C322.084 14.9601 322.222 15.6527 322.222 16.4145C322.222 17.7997 322.014 18.9772 321.529 19.8083C321.045 20.6394 320.214 21.332 318.967 21.8861L323.192 30.128H318.205L314.603 22.8557H311.002V30.128H306.5V10.389H306.431ZM314.396 19.0464C316.058 19.0464 317.028 18.7694 317.374 18.2846C317.72 17.7997 317.859 17.1764 317.859 16.4838C317.859 15.9297 317.651 15.3756 317.166 14.8908C316.751 14.406 315.573 14.1982 313.842 14.1982H311.002V19.0464H314.396V19.0464Z" fill="#3D3D3D"/>
<path d="M113.812 1.59253L138.469 70.0211H147.334L122.678 1.59253H113.812Z" fill="#3D3D3D"/>
<path d="M156.539 1.59253H148.021V69.9518H156.539V1.59253Z" fill="#3D3D3D"/>
<path d="M113.121 1.66162H104.602V70.0209H113.121V1.66162Z" fill="#3D3D3D"/>
<path d="M270.14 1.59277L253.795 58.455L239.25 1.59277H234.679H230.523L249.847 69.7443H257.535L278.659 1.59277H274.434H270.14Z" fill="#3D3D3D"/>
<path d="M287.442 1.59277H279.339V69.8136H287.442V1.59277Z" fill="#3D3D3D"/>
<path d="M229.826 1.59277H221.723V69.8136H229.826V1.59277Z" fill="#3D3D3D"/>
<path d="M32.2257 10.3889H23.4297V69.883H32.2257V10.3889Z" fill="#3D3D3D"/>
<path d="M32.2301 9.55828H54.7395V1.73193H0.855469V9.55828H23.4341H32.2301Z" fill="#3D3D3D"/>
</svg>
