<svg width="1380" height="105" viewBox="0 0 1380 105" fill="none" xmlns="http://www.w3.org/2000/svg">
<path d="M1287.35 15.188H1274.49V102.166H1287.35V15.188Z" fill="white"/>
<path d="M1287.35 13.973H1320.26V2.53125H1241.48V13.973H1274.49H1287.35Z" fill="white"/>
<path d="M1093.25 2.53149H1080.39V102.267H1093.25V2.53149Z" fill="white"/>
<path d="M1147.53 90.9268H1094.47V102.267H1145.5L1147.53 90.9268Z" fill="white"/>
<path d="M1142.06 45.1597H1094.47V56.6014H1142.06V45.1597Z" fill="white"/>
<path d="M1144.89 2.53149H1094.47V13.872H1144.89V2.53149Z" fill="white"/>
<path d="M1038.57 2.53149L1014.67 85.5602L993.41 2.53149H986.728H980.652L1008.9 102.065H1020.14L1051.02 2.53149H1044.85H1038.57Z" fill="white"/>
<path d="M1063.89 2.53149H1052.04V102.267H1063.89V2.53149Z" fill="white"/>
<path d="M979.64 2.53149H967.793V102.267H979.64V2.53149Z" fill="white"/>
<path d="M903.196 2.53149H890.337V102.267H903.196V2.53149Z" fill="white"/>
<path d="M957.577 90.9265H904.52V102.267H955.451L957.577 90.9265Z" fill="white"/>
<path d="M952.109 45.1597H904.52V56.6014H952.109V45.1597Z" fill="white"/>
<path d="M954.944 2.53149H904.52V13.872H954.944V2.53149Z" fill="white"/>
<path d="M192.391 2.53125H179.531V102.267H192.391V2.53125Z" fill="white"/>
<path d="M246.772 90.9263H193.613V102.267H244.646L246.772 90.9263Z" fill="white"/>
<path d="M241.203 45.1594H193.613V56.6012H241.203V45.1594Z" fill="white"/>
<path d="M244.038 2.53125H193.613V13.8718H244.038V2.53125Z" fill="white"/>
<path d="M1351.14 60.3477C1346.89 60.3477 1342.94 59.6389 1339.3 58.2213C1335.75 56.8038 1332.61 54.7787 1330.08 52.2473C1327.55 49.6147 1325.53 46.4758 1324.11 42.7294C1322.69 38.983 1321.98 34.8315 1321.98 30.1738C1321.98 25.5161 1322.69 21.3647 1324.21 17.6183C1325.73 13.8719 1327.75 10.733 1330.39 8.10036C1333.02 5.46774 1336.16 3.44265 1339.6 2.12634C1343.04 0.708781 1346.89 0 1350.94 0C1355.29 0 1359.34 0.708781 1362.89 2.12634C1366.43 3.54391 1369.57 5.569 1372 8.10036C1374.53 10.733 1376.46 13.8719 1377.87 17.6183C1379.29 21.3647 1380 25.5161 1380 30.1738C1380 34.8315 1379.29 38.983 1377.77 42.7294C1376.25 46.4758 1374.23 49.6147 1371.6 52.2473C1368.96 54.8799 1365.82 56.905 1362.28 58.2213C1358.84 59.6389 1355.09 60.3477 1351.14 60.3477ZM1350.94 53.7661C1357.32 53.7661 1362.58 51.7411 1366.63 47.5896C1370.68 43.5394 1372.71 37.6667 1372.71 30.1738C1372.71 22.681 1370.68 16.8082 1366.63 12.7581C1362.58 8.70789 1357.32 6.58154 1350.94 6.58154C1344.56 6.58154 1339.3 8.60663 1335.35 12.7581C1331.4 16.8082 1329.37 22.681 1329.37 30.1738C1329.37 37.6667 1331.4 43.5394 1335.35 47.5896C1339.3 51.7411 1344.56 53.7661 1350.94 53.7661ZM1339.9 15.1882H1350.64C1353.27 15.1882 1355.29 15.4919 1356.91 15.9982C1358.53 16.5045 1359.75 17.2133 1360.66 17.922C1361.57 18.7321 1362.18 19.6434 1362.48 20.7572C1362.79 21.871 1362.99 22.8835 1362.99 23.9973C1362.99 26.0224 1362.69 27.7437 1361.98 28.9588C1361.27 30.1738 1360.05 31.1864 1358.23 31.9964L1364.41 44.0457H1357.12L1351.75 33.414H1346.49V44.0457H1339.9V15.1882ZM1351.55 27.845C1353.98 27.845 1355.4 27.44 1355.9 26.7312C1356.41 26.0224 1356.61 25.1111 1356.61 24.0986C1356.61 23.2885 1356.31 22.4785 1355.6 21.7697C1354.99 21.0609 1353.27 20.7572 1350.74 20.7572H1346.59V27.845H1351.55Z" fill="white"/>
<path d="M298.898 2.53149L334.945 102.47H347.906L311.859 2.53149H298.898Z" fill="white"/>
<path d="M361.384 2.53149H348.93V102.47H361.384V2.53149Z" fill="white"/>
<path d="M297.993 2.53149H285.539V102.47H297.993V2.53149Z" fill="white"/>
<path d="M1171.2 2.53149L1207.15 102.47H1220.11L1184.16 2.53149H1171.2Z" fill="white"/>
<path d="M1233.59 2.53149H1221.13V102.47H1233.59V2.53149Z" fill="white"/>
<path d="M1170.2 2.53149H1157.74V102.47H1170.2V2.53149Z" fill="white"/>
<path d="M662.902 2.53149L639.006 85.5602L617.742 2.53149H611.06H604.984L633.234 102.065H644.474L675.356 2.53149H669.18H662.902Z" fill="white"/>
<path d="M688.221 2.53149H676.374V102.267H688.221V2.53149Z" fill="white"/>
<path d="M603.979 2.53149H592.132V102.267H603.979V2.53149Z" fill="white"/>
<path d="M480.154 102.267L504.05 19.2381L525.313 102.267H531.996H537.97L509.72 2.73364H498.481L467.699 102.267H473.876H480.154Z" fill="white"/>
<path d="M466.585 2.53125H454.738V102.267H466.585V2.53125Z" fill="white"/>
<path d="M550.835 2.53125H538.988V102.267H550.835V2.53125Z" fill="white"/>
<path d="M45.8671 15.1882H33.0078V102.166H45.8671V15.1882Z" fill="white"/>
<path d="M45.8683 13.9733H78.776V2.53149H0V13.9733H33.009H45.8683Z" fill="white"/>
<path d="M163.022 2.53149H150.163V102.267H163.022V2.53149Z" fill="white"/>
<path d="M148.85 44.7544H100.957V56.8037H148.85V44.7544Z" fill="white"/>
<path d="M99.7343 2.53149H86.875V102.267H99.7343V2.53149Z" fill="white"/>
<path d="M390.738 2.53149H377.879V102.267H390.738V2.53149Z" fill="white"/>
<path d="M445.018 90.9268H391.961V102.267H442.993L445.018 90.9268Z" fill="white"/>
<path d="M439.551 45.1597H391.961V56.6014H439.551V45.1597Z" fill="white"/>
<path d="M442.386 2.53149H391.961V13.872H442.386V2.53149Z" fill="white"/>
<path d="M732.88 90.6228C728.83 88.699 725.489 85.8638 722.755 82.3199C720.021 78.776 717.996 74.4221 716.68 69.3593C715.363 64.2966 714.655 58.6264 714.655 52.3486C714.655 46.1721 715.363 40.6031 716.68 35.5403C717.996 30.4776 720.122 26.1237 722.856 22.4785C725.59 18.8333 729.033 16.0995 733.083 14.0744C736.931 12.2518 741.487 11.2393 746.55 11.138V0C740.07 0.101255 734.197 1.21505 728.729 3.44265C723.059 5.77151 718.3 9.21416 714.25 13.6694C710.2 18.1246 707.061 23.5923 704.732 30.1738C702.403 36.6541 701.289 44.147 701.289 52.5511C701.289 60.9552 702.403 68.3468 704.631 74.9283C706.858 81.4086 709.997 86.8764 714.047 91.3316C718.097 95.7868 722.958 99.1282 728.527 101.356C733.994 103.583 739.968 104.697 746.449 104.798V93.6604C741.285 93.4579 736.728 92.5466 732.88 90.6228Z" fill="white"/>
<path d="M780.264 13.4668C776.214 9.01165 771.455 5.67025 765.785 3.44265C760.317 1.21505 754.343 0.101255 747.761 0V11.138C752.824 11.2392 757.279 12.1505 761.127 14.0744C765.177 15.9982 768.519 18.8333 771.252 22.4785C773.986 26.1237 776.113 30.4776 777.429 35.5403C778.847 40.6031 779.555 46.2733 779.555 52.3486C779.555 58.6264 778.847 64.2966 777.429 69.3593C776.011 74.4221 773.986 78.776 771.252 82.3199C768.519 85.8638 765.177 88.6989 761.127 90.6228C757.178 92.5466 752.723 93.4579 747.66 93.5592V104.697C754.343 104.596 760.418 103.482 765.886 101.255C771.556 98.9256 776.315 95.483 780.365 91.0278C784.416 86.5726 787.453 81.0036 789.681 74.5233C791.908 67.9418 792.921 60.4489 792.921 52.1461C792.921 43.8432 791.807 36.3504 789.579 29.8701C787.453 23.3898 784.314 17.922 780.264 13.4668Z" fill="white"/>
<path d="M883.245 2.53125H869.373L839.199 83.8386L845.477 100.951L883.245 2.53125Z" fill="white"/>
<path d="M793.731 2.53149L832.006 102.267H844.561L808.211 2.53149H793.731Z" fill="white"/>
</svg>
