<svg width="1380" height="105" fill="none" xmlns="http://www.w3.org/2000/svg"><path d="M1287.35 15.188h-12.86v86.978h12.86V15.188zm0-1.215h32.91V2.531h-78.78v11.442h45.87zm-194.1-11.442h-12.86v99.736h12.86V2.531zm54.28 88.396h-53.06v11.34h51.03l2.03-11.34zm-5.47-45.767h-47.59V56.6h47.59V45.16zm2.83-42.629h-50.42v11.341h50.42V2.532zm-106.32 0l-23.9 83.03-21.26-83.03h-12.758l28.248 99.534h11.24l30.88-99.534h-12.45zm25.32 0h-11.85v99.736h11.85V2.531zm-84.25 0h-11.847v99.736h11.847V2.531zm-76.444 0h-12.859v99.736h12.859V2.531zm54.381 88.396H904.52v11.34h50.931l2.126-11.34zm-5.468-45.767H904.52V56.6h47.589V45.16zm2.835-42.629H904.52v11.341h50.424V2.532zm-762.553 0h-12.86v99.736h12.86V2.531zm54.381 88.395h-53.159v11.341h51.033l2.126-11.34zm-5.569-45.766h-47.59V56.6h47.59V45.16zm2.835-42.629h-50.425v11.34h50.425V2.532zM1351.14 60.348c-4.25 0-8.2-.71-11.84-2.127-3.55-1.417-6.69-3.442-9.22-5.974-2.53-2.632-4.55-5.771-5.97-9.518-1.42-3.746-2.13-7.898-2.13-12.555 0-4.658.71-8.81 2.23-12.556 1.52-3.746 3.54-6.885 6.18-9.518a26.288 26.288 0 019.21-5.974C1343.04.71 1346.89 0 1350.94 0c4.35 0 8.4.709 11.95 2.126 3.54 1.418 6.68 3.443 9.11 5.974 2.53 2.633 4.46 5.772 5.87 9.518 1.42 3.747 2.13 7.898 2.13 12.556 0 4.657-.71 8.809-2.23 12.555-1.52 3.747-3.54 6.886-6.17 9.518a25.928 25.928 0 01-9.32 5.974c-3.44 1.418-7.19 2.127-11.14 2.127zm-.2-6.582c6.38 0 11.64-2.025 15.69-6.176 4.05-4.05 6.08-9.923 6.08-17.416s-2.03-13.366-6.08-17.416c-4.05-4.05-9.31-6.176-15.69-6.176-6.38 0-11.64 2.025-15.59 6.176-3.95 4.05-5.98 9.923-5.98 17.416s2.03 13.365 5.98 17.416c3.95 4.151 9.21 6.176 15.59 6.176zm-11.04-38.578h10.74c2.63 0 4.65.304 6.27.81 1.62.507 2.84 1.215 3.75 1.924.91.81 1.52 1.721 1.82 2.835.31 1.114.51 2.127.51 3.24 0 2.025-.3 3.747-1.01 4.962-.71 1.215-1.93 2.227-3.75 3.037l6.18 12.05h-7.29l-5.37-10.632h-5.26v10.632h-6.59V15.188zm11.65 12.657c2.43 0 3.85-.405 4.35-1.114.51-.709.71-1.62.71-2.632 0-.81-.3-1.62-1.01-2.33-.61-.708-2.33-1.012-4.86-1.012h-4.15v7.088h4.96zM298.898 2.531l36.047 99.939h12.961L311.859 2.531h-12.961zm62.486 0H348.93v99.939h12.454V2.531zm-63.391 0h-12.454v99.939h12.454V2.531zm873.207 0l35.95 99.939h12.96l-35.95-99.939h-12.96zm62.39 0h-12.46v99.939h12.46V2.531zm-63.39 0h-12.46v99.939h12.46V2.531zm-507.298 0l-23.896 83.03-21.264-83.03h-12.758l28.25 99.534h11.24l30.882-99.534h-12.454zm25.319 0h-11.847v99.736h11.847V2.531zm-84.242 0h-11.847v99.736h11.847V2.531zm-123.825 99.736l23.896-83.029 21.263 83.029h12.657L509.72 2.734h-11.239l-30.782 99.533h12.455zM466.585 2.531h-11.847v99.736h11.847V2.531zm84.25 0h-11.847v99.736h11.847V2.531zM45.867 15.188h-12.86v86.978h12.86V15.188zm.001-1.215h32.908V2.531H0v11.442h45.869zM163.022 2.531h-12.859v99.736h12.859V2.531zM148.85 44.754h-47.893v12.05h47.893v-12.05zM99.734 2.531H86.875v99.736h12.86V2.531zm291.004 0h-12.859v99.736h12.859V2.531zm54.28 88.396h-53.057v11.34h51.032l2.025-11.34zm-5.467-45.767h-47.59V56.6h47.59V45.16zm2.835-42.629h-50.425v11.341h50.425V2.532zM732.88 90.623c-4.05-1.924-7.391-4.76-10.125-8.303-2.734-3.544-4.759-7.898-6.075-12.96-1.317-5.063-2.025-10.734-2.025-17.011 0-6.177.708-11.746 2.025-16.809 1.316-5.062 3.442-9.416 6.176-13.061 2.734-3.646 6.177-6.38 10.227-8.405 3.848-1.822 8.404-2.835 13.467-2.936V0c-6.48.101-12.353 1.215-17.821 3.443-5.67 2.329-10.429 5.771-14.479 10.226-4.05 4.456-7.189 9.923-9.518 16.505-2.329 6.48-3.443 13.973-3.443 22.377 0 8.404 1.114 15.796 3.342 22.377 2.227 6.48 5.366 11.948 9.416 16.404 4.05 4.455 8.911 7.796 14.48 10.024 5.467 2.227 11.441 3.341 17.922 3.442V93.66c-5.164-.202-9.721-1.113-13.569-3.037zm47.384-77.156c-4.05-4.455-8.809-7.797-14.479-10.024C760.317 1.215 754.343.1 747.761 0v11.138c5.063.101 9.518 1.012 13.366 2.936 4.05 1.924 7.392 4.76 10.125 8.405 2.734 3.645 4.861 7.999 6.177 13.061 1.418 5.063 2.126 10.733 2.126 16.809 0 6.277-.708 11.948-2.126 17.01-1.418 5.063-3.443 9.417-6.177 12.96-2.733 3.545-6.075 6.38-10.125 8.304-3.949 1.924-8.404 2.835-13.467 2.936v11.138c6.683-.101 12.758-1.215 18.226-3.442 5.67-2.33 10.429-5.772 14.479-10.227 4.051-4.455 7.088-10.024 9.316-16.505 2.227-6.581 3.24-14.074 3.24-22.377 0-8.303-1.114-15.796-3.342-22.276-2.126-6.48-5.265-11.948-9.315-16.403zM883.245 2.531h-13.872L839.199 83.84l6.278 17.112 37.768-98.42zm-89.514 0l38.275 99.736h12.555l-36.35-99.736h-14.48z" fill="#181818"/></svg>