<svg width="92" height="105" fill="none" xmlns="http://www.w3.org/2000/svg"><path d="M31.88 90.623c-4.05-1.924-7.391-4.76-10.125-8.303-2.734-3.544-4.759-7.898-6.075-12.96-1.316-5.063-2.025-10.734-2.025-17.011 0-6.177.709-11.746 2.025-16.809 1.316-5.062 3.442-9.416 6.176-13.061 2.734-3.646 6.177-6.38 10.227-8.405 3.848-1.822 8.404-2.835 13.467-2.936V0c-6.48.101-12.353 1.215-17.82 3.443-5.671 2.329-10.43 5.771-14.48 10.226-4.05 4.456-7.19 9.923-9.518 16.505C1.402 36.654.289 44.147.289 52.55c0 8.404 1.114 15.796 3.342 22.377 2.227 6.48 5.366 11.948 9.416 16.404 4.05 4.455 8.91 7.796 14.48 10.024 5.467 2.227 11.441 3.341 17.922 3.442V93.66c-5.164-.202-9.72-1.113-13.568-3.037zm47.384-77.156c-4.05-4.455-8.81-7.797-14.48-10.024C59.318 1.215 53.344.1 46.762 0v11.138c5.063.101 9.518 1.012 13.366 2.936 4.05 1.924 7.392 4.76 10.125 8.405 2.734 3.645 4.86 7.999 6.177 13.061 1.418 5.063 2.126 10.733 2.126 16.809 0 6.277-.709 11.948-2.126 17.01-1.418 5.063-3.443 9.417-6.177 12.96-2.733 3.545-6.075 6.38-10.125 8.304-3.949 1.924-8.404 2.835-13.467 2.936v11.138c6.683-.101 12.758-1.215 18.226-3.442 5.67-2.33 10.43-5.772 14.48-10.227 4.05-4.455 7.087-10.024 9.315-16.505 2.227-6.581 3.24-14.074 3.24-22.377 0-8.303-1.114-15.796-3.342-22.276-2.126-6.48-5.265-11.948-9.315-16.403z" fill="#181818"/></svg>