<svg width="59" height="61" fill="none" xmlns="http://www.w3.org/2000/svg"><path d="M30.143 60.348c-4.253 0-8.202-.71-11.847-2.127-3.544-1.417-6.683-3.442-9.214-5.974-2.532-2.632-4.557-5.771-5.974-9.518C1.69 38.983.98 34.831.98 30.174c0-4.658.71-8.81 2.228-12.556 1.519-3.746 3.544-6.885 6.177-9.518A26.303 26.303 0 0118.6 2.126C22.042.71 25.89 0 29.94 0c4.354 0 8.404.709 11.948 2.126 3.544 1.418 6.683 3.443 9.113 5.974 2.532 2.633 4.455 5.772 5.873 9.518C58.292 21.365 59 25.516 59 30.174c0 4.657-.709 8.809-2.227 12.555-1.52 3.747-3.544 6.886-6.177 9.518a25.815 25.815 0 01-9.315 5.974c-3.443 1.418-7.19 2.127-11.138 2.127zm-.203-6.582c6.38 0 11.644-2.025 15.695-6.176 4.05-4.05 6.075-9.923 6.075-17.416s-2.025-13.366-6.075-17.416c-4.05-4.05-9.316-6.176-15.695-6.176s-11.644 2.025-15.593 6.176c-3.949 4.05-5.974 9.923-5.974 17.416s2.025 13.365 5.974 17.416c3.949 4.151 9.214 6.176 15.593 6.176zM18.904 15.188h10.733c2.632 0 4.657.304 6.277.81 1.62.507 2.835 1.215 3.747 1.924.911.81 1.518 1.721 1.822 2.835.304 1.114.507 2.127.507 3.24 0 2.025-.304 3.747-1.013 4.962-.709 1.215-1.924 2.227-3.746 3.037l6.176 12.05h-7.29L30.75 33.414h-5.265v10.632h-6.581V15.188zm11.644 12.657c2.43 0 3.847-.405 4.354-1.114.506-.709.709-1.62.709-2.632 0-.81-.304-1.62-1.013-2.33-.608-.708-2.329-1.012-4.86-1.012h-4.152v7.088h4.962z" fill="#181818"/></svg>