<svg width="40" height="42" fill="none" xmlns="http://www.w3.org/2000/svg"><path d="M20.119 41.279c-2.91 0-5.61-.485-8.104-1.455-2.424-.97-4.57-2.355-6.302-4.086-1.732-1.8-3.117-3.948-4.087-6.51-.97-2.563-1.454-5.403-1.454-8.589 0-3.186.485-6.025 1.524-8.588C2.734 9.49 4.12 7.341 5.92 5.541a18.002 18.002 0 016.303-4.087C14.578.484 17.21 0 19.98 0c2.978 0 5.749.485 8.173 1.454 2.424.97 4.57 2.355 6.233 4.087 1.732 1.8 3.048 3.948 4.017 6.51.97 2.563 1.455 5.402 1.455 8.588 0 3.186-.485 6.026-1.524 8.589-1.039 2.562-2.424 4.71-4.225 6.51a17.657 17.657 0 01-6.372 4.086c-2.285.97-4.917 1.455-7.618 1.455zm-.139-4.502c4.363 0 7.965-1.385 10.735-4.225 2.77-2.77 4.156-6.787 4.156-11.913 0-5.125-1.385-9.142-4.156-11.912-2.77-2.77-6.372-4.225-10.735-4.225-4.363 0-7.965 1.385-10.666 4.225-2.701 2.77-4.086 6.787-4.086 11.912 0 5.126 1.385 9.143 4.086 11.913 2.77 2.84 6.303 4.225 10.666 4.225zm-7.55-26.388h7.342c1.801 0 3.186.208 4.295.554a8.017 8.017 0 012.562 1.316c.623.554 1.039 1.177 1.247 1.94.207.761.346 1.454.346 2.216 0 1.385-.208 2.562-.693 3.393-.484.831-1.316 1.524-2.562 2.078l4.225 8.242h-4.987l-3.601-7.272h-3.602v7.272H12.5V10.389h-.07zm7.966 8.657c1.662 0 2.632-.277 2.978-.761.346-.485.485-1.109.485-1.801 0-.554-.208-1.108-.693-1.593-.416-.485-1.593-.693-3.324-.693h-2.84v4.848h3.394z" fill="#3D3D3D"/></svg>