<svg width="334" height="71" fill="none" xmlns="http://www.w3.org/2000/svg"><path d="M46.703 31.79h50.975v8.104H46.703V31.79zm116.711 0h50.975v8.104h-50.975V31.79zm150.705 9.489c-2.909 0-5.61-.485-8.104-1.455-2.424-.97-4.571-2.355-6.302-4.086-1.732-1.8-3.117-3.948-4.087-6.51-.969-2.563-1.454-5.403-1.454-8.589 0-3.186.485-6.025 1.524-8.588 1.038-2.562 2.424-4.71 4.224-6.51a17.995 17.995 0 016.303-4.087C308.578.484 311.21 0 313.98 0c2.978 0 5.749.485 8.173 1.454 2.424.97 4.571 2.355 6.233 4.087 1.732 1.8 3.048 3.948 4.017 6.51.97 2.563 1.455 5.402 1.455 8.588 0 3.186-.485 6.026-1.524 8.589-1.039 2.562-2.424 4.71-4.225 6.51a17.661 17.661 0 01-6.372 4.086c-2.285.97-4.917 1.455-7.618 1.455zm-.139-4.502c4.364 0 7.965-1.385 10.735-4.225 2.771-2.77 4.156-6.787 4.156-11.913 0-5.125-1.385-9.142-4.156-11.912-2.77-2.77-6.371-4.225-10.735-4.225-4.363 0-7.965 1.385-10.666 4.225-2.701 2.77-4.086 6.787-4.086 11.912 0 5.126 1.385 9.143 4.086 11.913 2.771 2.84 6.303 4.225 10.666 4.225zm-7.549-26.388h7.341c1.801 0 3.186.208 4.294.554a7.997 7.997 0 012.563 1.316c.623.554 1.039 1.177 1.247 1.94.208.761.346 1.454.346 2.216 0 1.385-.208 2.562-.693 3.393-.484.831-1.315 1.524-2.562 2.078l4.225 8.242h-4.987l-3.602-7.272h-3.601v7.272H306.5V10.389h-.069zm7.965 8.657c1.662 0 2.632-.277 2.978-.761.346-.485.485-1.109.485-1.801 0-.554-.208-1.108-.693-1.593-.415-.485-1.593-.693-3.324-.693h-2.84v4.848h3.394zM113.812 1.593l24.657 68.428h8.865L122.678 1.593h-8.866zm42.727 0h-8.518v68.359h8.518V1.592zm-43.418.069h-8.519V70.02h8.519V1.66zm157.019-.069l-16.345 56.862L239.25 1.593h-8.727l19.324 68.151h7.688l21.124-68.151h-8.519zm17.302 0h-8.103v68.22h8.103V1.594zm-57.616 0h-8.103v68.22h8.103V1.594zm-197.6 8.796H23.43v59.494h8.796V10.389zm.004-.831h22.51V1.732H.855v7.826H32.23z" fill="#3D3D3D"/></svg>